<?xml version="1.0" encoding="UTF-8"?>
<svg width="17px" height="17px" viewBox="0 0 17 17" version="1.1" xmlns="http://www.w3.org/2000/svg" xmlns:xlink="http://www.w3.org/1999/xlink">
    <!-- Generator: Sketch 58 (84663) - https://sketch.com -->
    <title>Combined Shape</title>
    <desc>Created with Sketch.</desc>
    <g id="github" stroke="none" stroke-width="1" fill="none" fill-rule="evenodd">
        <g id="Setting" transform="translate(-510.000000, -423.000000)" fill="#9B9B9B">
            <g id="Group-4" transform="translate(334.000000, 137.000000)">
                <path d="M184.5,286 C189.19442,286 193,289.80558 193,294.5 C193,299.19442 189.19442,303 184.5,303 C179.80558,303 176,299.19442 176,294.5 C176,289.80558 179.80558,286 184.5,286 Z M184.5,286.607143 C180.140895,286.607143 176.607143,290.140895 176.607143,294.5 C176.607143,298.859105 180.140895,302.392857 184.5,302.392857 C188.859105,302.392857 192.392857,298.859105 192.392857,294.5 C192.392857,290.140895 188.859105,286.607143 184.5,286.607143 Z M184.803571,288.732143 L184.803,294.196 L190.267857,294.196429 L190.267857,294.803571 L184.803,294.803 L184.803571,300.267857 L184.196429,300.267857 L184.196,294.803 L178.732143,294.803571 L178.732143,294.196429 L184.196,294.196 L184.196429,288.732143 L184.803571,288.732143 Z" id="Combined-Shape"></path>
            </g>
        </g>
    </g>
</svg>