<?xml version="1.0" encoding="UTF-8"?>
<svg width="10px" height="13px" viewBox="0 0 10 13" version="1.1" xmlns="http://www.w3.org/2000/svg" xmlns:xlink="http://www.w3.org/1999/xlink">
    <!-- Generator: Sketch 58 (84663) - https://sketch.com -->
    <title>delete</title>
    <desc>Created with Sketch.</desc>
    <g id="github" stroke="none" stroke-width="1" fill="none" fill-rule="evenodd">
        <g id="Setting" transform="translate(-584.000000, -295.000000)" fill="#9B9B9B" fill-rule="nonzero">
            <g id="Group-4" transform="translate(334.000000, 137.000000)">
                <g id="delete" transform="translate(250.000000, 158.000000)">
                    <path d="M6.70685167,4.47422773 C6.54813218,4.47422773 6.41949534,4.6028646 6.41949534,4.76158405 L6.41949534,10.1926185 C6.41949534,10.3512257 6.54813218,10.4799749 6.70685167,10.4799749 C6.86557112,10.4799749 6.99420799,10.3512257 6.99420799,10.1926185 L6.99420799,4.76158405 C6.99420799,4.6028646 6.86557112,4.47422773 6.70685167,4.47422773 Z" id="Path"></path>
                    <path d="M3.31604707,4.47422773 C3.15732759,4.47422773 3.02869075,4.6028646 3.02869075,4.76158405 L3.02869075,10.1926185 C3.02869075,10.3512257 3.15732759,10.4799749 3.31604707,10.4799749 C3.47476652,10.4799749 3.60340339,10.3512257 3.60340339,10.1926185 L3.60340339,4.76158405 C3.60340339,4.6028646 3.47476652,4.47422773 3.31604707,4.47422773 Z" id="Path"></path>
                    <path d="M0.844782701,3.68164063 L0.844782701,10.7614943 C0.844782701,11.1799569 0.998226466,11.5729391 1.26627603,11.8549075 C1.53309086,12.1376616 1.90440914,12.2981771 2.29301365,12.2988506 L7.72988506,12.2988506 C8.11860184,12.2981771 8.48992009,12.1376616 8.75662267,11.8549075 C9.02467224,11.5729391 9.17811603,11.1799569 9.17811603,10.7614943 L9.17811603,3.68164063 C9.71095994,3.54020744 10.0562365,3.02543552 9.98495868,2.47867276 C9.91356862,1.93202227 9.44784931,1.52310075 8.89648437,1.52298851 L7.42524247,1.52298851 L7.42524247,1.1637931 C7.42692618,0.861732213 7.30749371,0.571681925 7.0936602,0.358297414 C6.8798267,0.145025144 6.58932741,0.0262661638 6.28726652,0.0286978759 L3.73563218,0.0286978759 C3.43357129,0.0262661638 3.14307201,0.145025144 2.92923851,0.358297414 C2.715405,0.571681925 2.59597253,0.861732213 2.59765626,1.1637931 L2.59765626,1.52298851 L1.12641434,1.52298851 C0.575049397,1.52310075 0.109330115,1.93202227 0.03794,2.47867276 C-0.0333378161,3.02543552 0.311938764,3.54020744 0.844782701,3.68164063 Z M7.72988506,11.7241379 L2.29301365,11.7241379 C1.8017017,11.7241379 1.41949534,11.3020833 1.41949534,10.7614943 L1.41949534,3.70689655 L8.60340339,3.70689655 L8.60340339,10.7614943 C8.60340339,11.3020833 8.22119701,11.7241379 7.72988506,11.7241379 Z M3.17236891,1.1637931 C3.17046066,1.01416578 3.22927891,0.870150862 3.33546606,0.764524971 C3.44154095,0.65889908 3.58589259,0.600866552 3.73563218,0.603448276 L6.28726652,0.603448276 C6.43700609,0.600866552 6.58135776,0.65889908 6.68743264,0.764524971 C6.7936198,0.870038621 6.85243805,1.01416578 6.85052983,1.1637931 L6.85052983,1.52298851 L3.17236891,1.52298851 L3.17236891,1.1637931 Z M1.12641434,2.09770115 L8.89648437,2.09770115 C9.18215695,2.09770115 9.41372575,2.32926994 9.41372575,2.61494253 C9.41372575,2.90061511 9.18215695,3.13218391 8.89648437,3.13218391 L1.12641434,3.13218391 C0.840741724,3.13218391 0.60917296,2.90061511 0.60917296,2.61494253 C0.60917296,2.32926994 0.840741724,2.09770115 1.12641434,2.09770115 Z" id="Shape"></path>
                    <path d="M5.01144937,4.47422773 C4.85272989,4.47422773 4.72409305,4.6028646 4.72409305,4.76158405 L4.72409305,10.1926185 C4.72409305,10.3512257 4.85272989,10.4799749 5.01144937,10.4799749 C5.17016882,10.4799749 5.29880569,10.3512257 5.29880569,10.1926185 L5.29880569,4.76158405 C5.29880569,4.6028646 5.17016882,4.47422773 5.01144937,4.47422773 Z" id="Path"></path>
                </g>
            </g>
        </g>
    </g>
</svg>